<svg version="1.1" xmlns="http://www.w3.org/2000/svg" xmlns:xlink="http://www.w3.org/1999/xlink" width="764" height="638"><defs/><g><text fill="#eeeeee" stroke="none" font-family="Arial" font-size="24px" font-style="normal" font-weight="normal" text-decoration="none" x="0" y="0"></text><text fill="#eeeeee" stroke="none" font-family="Arial" font-size="24px" font-style="normal" font-weight="normal" text-decoration="none" x="0" y="30"></text><text fill="#eeeeee" stroke="none" font-family="Arial" font-size="24px" font-style="normal" font-weight="normal" text-decoration="none" x="0" y="60"></text><text fill="#eeeeee" stroke="none" font-family="Arial" font-size="24px" font-style="normal" font-weight="normal" text-decoration="none" x="0" y="90"></text><text fill="#eeeeee" stroke="none" font-family="Arial" font-size="24px" font-style="normal" font-weight="normal" text-decoration="none" x="0" y="120"></text><text fill="#eeeeee" stroke="none" font-family="Arial" font-size="24px" font-style="normal" font-weight="normal" text-decoration="none" x="0" y="150"></text><text fill="#eeeeee" stroke="none" font-family="Arial" font-size="24px" font-style="normal" font-weight="normal" text-decoration="none" x="0" y="180"></text><text fill="#eeeeee" stroke="none" font-family="Arial" font-size="24px" font-style="normal" font-weight="normal" text-decoration="none" x="0" y="210"></text><text fill="#eeeeee" stroke="none" font-family="Arial" font-size="24px" font-style="normal" font-weight="normal" text-decoration="none" x="0" y="240"></text><text fill="#eeeeee" stroke="none" font-family="Arial" font-size="24px" font-style="normal" font-weight="normal" text-decoration="none" x="0" y="270"></text><text fill="#eeeeee" stroke="none" font-family="Arial" font-size="24px" font-style="normal" font-weight="normal" text-decoration="none" x="0" y="300"></text><text fill="#eeeeee" stroke="none" font-family="Arial" font-size="24px" font-style="normal" font-weight="normal" text-decoration="none" x="0" y="330"></text><text fill="#eeeeee" stroke="none" font-family="Arial" font-size="24px" font-style="normal" font-weight="normal" text-decoration="none" x="0" y="360"></text><text fill="#eeeeee" stroke="none" font-family="Arial" font-size="24px" font-style="normal" font-weight="normal" text-decoration="none" x="0" y="390"></text><text fill="#eeeeee" stroke="none" font-family="Arial" font-size="24px" font-style="normal" font-weight="normal" text-decoration="none" x="0" y="420"></text><text fill="#eeeeee" stroke="none" font-family="Arial" font-size="24px" font-style="normal" font-weight="normal" text-decoration="none" x="0" y="450"></text><text fill="#eeeeee" stroke="none" font-family="Arial" font-size="24px" font-style="normal" font-weight="normal" text-decoration="none" x="0" y="480"></text><text fill="#eeeeee" stroke="none" font-family="Arial" font-size="24px" font-style="normal" font-weight="normal" text-decoration="none" x="0" y="510"></text><text fill="#eeeeee" stroke="none" font-family="Arial" font-size="24px" font-style="normal" font-weight="normal" text-decoration="none" x="0" y="540"></text><text fill="#eeeeee" stroke="none" font-family="Arial" font-size="24px" font-style="normal" font-weight="normal" text-decoration="none" x="0" y="570"></text><text fill="#eeeeee" stroke="none" font-family="Arial" font-size="24px" font-style="normal" font-weight="normal" text-decoration="none" x="0" y="600"></text><text fill="#eeeeee" stroke="none" font-family="Arial" font-size="24px" font-style="normal" font-weight="normal" text-decoration="none" x="0" y="630"></text><text fill="#eeeeee" stroke="none" font-family="Arial" font-size="24px" font-style="normal" font-weight="normal" text-decoration="none" x="200" y="0"></text><text fill="#eeeeee" stroke="none" font-family="Arial" font-size="24px" font-style="normal" font-weight="normal" text-decoration="none" x="200" y="30"></text><text fill="#eeeeee" stroke="none" font-family="Arial" font-size="24px" font-style="normal" font-weight="normal" text-decoration="none" x="200" y="60"></text><text fill="#eeeeee" stroke="none" font-family="Arial" font-size="24px" font-style="normal" font-weight="normal" text-decoration="none" x="200" y="90"></text><text fill="#eeeeee" stroke="none" font-family="Arial" font-size="24px" font-style="normal" font-weight="normal" text-decoration="none" x="200" y="120"></text><text fill="#eeeeee" stroke="none" font-family="Arial" font-size="24px" font-style="normal" font-weight="normal" text-decoration="none" x="200" y="150"></text><text fill="#eeeeee" stroke="none" font-family="Arial" font-size="24px" font-style="normal" font-weight="normal" text-decoration="none" x="200" y="180"></text><text fill="#eeeeee" stroke="none" font-family="Arial" font-size="24px" font-style="normal" font-weight="normal" text-decoration="none" x="200" y="210"></text><text fill="#eeeeee" stroke="none" font-family="Arial" font-size="24px" font-style="normal" font-weight="normal" text-decoration="none" x="200" y="240"></text><text fill="#eeeeee" stroke="none" font-family="Arial" font-size="24px" font-style="normal" font-weight="normal" text-decoration="none" x="200" y="270"></text><text fill="#eeeeee" stroke="none" font-family="Arial" font-size="24px" font-style="normal" font-weight="normal" text-decoration="none" x="200" y="300"></text><text fill="#eeeeee" stroke="none" font-family="Arial" font-size="24px" font-style="normal" font-weight="normal" text-decoration="none" x="200" y="330"></text><text fill="#eeeeee" stroke="none" font-family="Arial" font-size="24px" font-style="normal" font-weight="normal" text-decoration="none" x="200" y="360"></text><text fill="#eeeeee" stroke="none" font-family="Arial" font-size="24px" font-style="normal" font-weight="normal" text-decoration="none" x="200" y="390"></text><text fill="#eeeeee" stroke="none" font-family="Arial" font-size="24px" font-style="normal" font-weight="normal" text-decoration="none" x="200" y="420"></text><text fill="#eeeeee" stroke="none" font-family="Arial" font-size="24px" font-style="normal" font-weight="normal" text-decoration="none" x="200" y="450"></text><text fill="#eeeeee" stroke="none" font-family="Arial" font-size="24px" font-style="normal" font-weight="normal" text-decoration="none" x="200" y="480"></text><text fill="#eeeeee" stroke="none" font-family="Arial" font-size="24px" font-style="normal" font-weight="normal" text-decoration="none" x="200" y="510"></text><text fill="#eeeeee" stroke="none" font-family="Arial" font-size="24px" font-style="normal" font-weight="normal" text-decoration="none" x="200" y="540"></text><text fill="#eeeeee" stroke="none" font-family="Arial" font-size="24px" font-style="normal" font-weight="normal" text-decoration="none" x="200" y="570"></text><text fill="#eeeeee" stroke="none" font-family="Arial" font-size="24px" font-style="normal" font-weight="normal" text-decoration="none" x="200" y="600"></text><text fill="#eeeeee" stroke="none" font-family="Arial" font-size="24px" font-style="normal" font-weight="normal" text-decoration="none" x="200" y="630"></text><text fill="#eeeeee" stroke="none" font-family="Arial" font-size="24px" font-style="normal" font-weight="normal" text-decoration="none" x="400" y="0"></text><text fill="#eeeeee" stroke="none" font-family="Arial" font-size="24px" font-style="normal" font-weight="normal" text-decoration="none" x="400" y="30"></text><text fill="#eeeeee" stroke="none" font-family="Arial" font-size="24px" font-style="normal" font-weight="normal" text-decoration="none" x="400" y="60"></text><text fill="#eeeeee" stroke="none" font-family="Arial" font-size="24px" font-style="normal" font-weight="normal" text-decoration="none" x="400" y="90"></text><text fill="#eeeeee" stroke="none" font-family="Arial" font-size="24px" font-style="normal" font-weight="normal" text-decoration="none" x="400" y="120"></text><text fill="#eeeeee" stroke="none" font-family="Arial" font-size="24px" font-style="normal" font-weight="normal" text-decoration="none" x="400" y="150"></text><text fill="#eeeeee" stroke="none" font-family="Arial" font-size="24px" font-style="normal" font-weight="normal" text-decoration="none" x="400" y="180"></text><text fill="#eeeeee" stroke="none" font-family="Arial" font-size="24px" font-style="normal" font-weight="normal" text-decoration="none" x="400" y="210"></text><text fill="#eeeeee" stroke="none" font-family="Arial" font-size="24px" font-style="normal" font-weight="normal" text-decoration="none" x="400" y="240"></text><text fill="#eeeeee" stroke="none" font-family="Arial" font-size="24px" font-style="normal" font-weight="normal" text-decoration="none" x="400" y="270"></text><text fill="#eeeeee" stroke="none" font-family="Arial" font-size="24px" font-style="normal" font-weight="normal" text-decoration="none" x="400" y="300"></text><text fill="#eeeeee" stroke="none" font-family="Arial" font-size="24px" font-style="normal" font-weight="normal" text-decoration="none" x="400" y="330"></text><text fill="#eeeeee" stroke="none" font-family="Arial" font-size="24px" font-style="normal" font-weight="normal" text-decoration="none" x="400" y="360"></text><text fill="#eeeeee" stroke="none" font-family="Arial" font-size="24px" font-style="normal" font-weight="normal" text-decoration="none" x="400" y="390"></text><text fill="#eeeeee" stroke="none" font-family="Arial" font-size="24px" font-style="normal" font-weight="normal" text-decoration="none" x="400" y="420"></text><text fill="#eeeeee" stroke="none" font-family="Arial" font-size="24px" font-style="normal" font-weight="normal" text-decoration="none" x="400" y="450"></text><text fill="#eeeeee" stroke="none" font-family="Arial" font-size="24px" font-style="normal" font-weight="normal" text-decoration="none" x="400" y="480"></text><text fill="#eeeeee" stroke="none" font-family="Arial" font-size="24px" font-style="normal" font-weight="normal" text-decoration="none" x="400" y="510"></text><text fill="#eeeeee" stroke="none" font-family="Arial" font-size="24px" font-style="normal" font-weight="normal" text-decoration="none" x="400" y="540"></text><text fill="#eeeeee" stroke="none" font-family="Arial" font-size="24px" font-style="normal" font-weight="normal" text-decoration="none" x="400" y="570"></text><text fill="#eeeeee" stroke="none" font-family="Arial" font-size="24px" font-style="normal" font-weight="normal" text-decoration="none" x="400" y="600"></text><text fill="#eeeeee" stroke="none" font-family="Arial" font-size="24px" font-style="normal" font-weight="normal" text-decoration="none" x="400" y="630"></text><text fill="#eeeeee" stroke="none" font-family="Arial" font-size="24px" font-style="normal" font-weight="normal" text-decoration="none" x="600" y="0"></text><text fill="#eeeeee" stroke="none" font-family="Arial" font-size="24px" font-style="normal" font-weight="normal" text-decoration="none" x="600" y="30"></text><text fill="#eeeeee" stroke="none" font-family="Arial" font-size="24px" font-style="normal" font-weight="normal" text-decoration="none" x="600" y="60"></text><text fill="#eeeeee" stroke="none" font-family="Arial" font-size="24px" font-style="normal" font-weight="normal" text-decoration="none" x="600" y="90"></text><text fill="#eeeeee" stroke="none" font-family="Arial" font-size="24px" font-style="normal" font-weight="normal" text-decoration="none" x="600" y="120"></text><text fill="#eeeeee" stroke="none" font-family="Arial" font-size="24px" font-style="normal" font-weight="normal" text-decoration="none" x="600" y="150"></text><text fill="#eeeeee" stroke="none" font-family="Arial" font-size="24px" font-style="normal" font-weight="normal" text-decoration="none" x="600" y="180"></text><text fill="#eeeeee" stroke="none" font-family="Arial" font-size="24px" font-style="normal" font-weight="normal" text-decoration="none" x="600" y="210"></text><text fill="#eeeeee" stroke="none" font-family="Arial" font-size="24px" font-style="normal" font-weight="normal" text-decoration="none" x="600" y="240"></text><text fill="#eeeeee" stroke="none" font-family="Arial" font-size="24px" font-style="normal" font-weight="normal" text-decoration="none" x="600" y="270"></text><text fill="#eeeeee" stroke="none" font-family="Arial" font-size="24px" font-style="normal" font-weight="normal" text-decoration="none" x="600" y="300"></text><text fill="#eeeeee" stroke="none" font-family="Arial" font-size="24px" font-style="normal" font-weight="normal" text-decoration="none" x="600" y="330"></text><text fill="#eeeeee" stroke="none" font-family="Arial" font-size="24px" font-style="normal" font-weight="normal" text-decoration="none" x="600" y="360"></text><text fill="#eeeeee" stroke="none" font-family="Arial" font-size="24px" font-style="normal" font-weight="normal" text-decoration="none" x="600" y="390"></text><text fill="#eeeeee" stroke="none" font-family="Arial" font-size="24px" font-style="normal" font-weight="normal" text-decoration="none" x="600" y="420"></text><text fill="#eeeeee" stroke="none" font-family="Arial" font-size="24px" font-style="normal" font-weight="normal" text-decoration="none" x="600" y="450"></text><text fill="#eeeeee" stroke="none" font-family="Arial" font-size="24px" font-style="normal" font-weight="normal" text-decoration="none" x="600" y="480"></text><text fill="#eeeeee" stroke="none" font-family="Arial" font-size="24px" font-style="normal" font-weight="normal" text-decoration="none" x="600" y="510"></text><text fill="#eeeeee" stroke="none" font-family="Arial" font-size="24px" font-style="normal" font-weight="normal" text-decoration="none" x="600" y="540"></text><text fill="#eeeeee" stroke="none" font-family="Arial" font-size="24px" font-style="normal" font-weight="normal" text-decoration="none" x="600" y="570"></text><text fill="#eeeeee" stroke="none" font-family="Arial" font-size="24px" font-style="normal" font-weight="normal" text-decoration="none" x="600" y="600"></text><text fill="#eeeeee" stroke="none" font-family="Arial" font-size="24px" font-style="normal" font-weight="normal" text-decoration="none" x="600" y="630"></text><g transform="translate(-41,2) scale(1,1)"><rect fill="#ffffff" stroke="none" x="51" y="8" width="744" height="152"/></g><g transform="translate(-41,2) scale(1,1)"><path fill="none" stroke="#000000" d="M 51 8 L 795 8 L 795 160 L 51 160 L 51 8 Z Z" stroke-miterlimit="10"/></g><g transform="translate(-41,2) scale(1,1)"><g><path fill="none" stroke="none"/><text fill="#000000" stroke="none" font-family="Arial" font-size="13px" font-style="normal" font-weight="normal" text-decoration="none" x="56" y="24">A 사이트에서는 모든 사용자들이 A 사이트의 게시글을 볼 수 있는 서비스를 만드려고 한다.</text></g></g><g transform="translate(-41,2) scale(1,1)"><g><path fill="none" stroke="none"/><text fill="#000000" stroke="none" font-family="Arial" font-size="13px" font-style="normal" font-weight="normal" text-decoration="none" x="56" y="39">물론 게시글을 작성 및 수정, 삭제할 수 있는 기능은 A 사이트에 회원으로 가입한 회원만 사용할 수 있으며,</text></g></g><g transform="translate(-41,2) scale(1,1)"><g><path fill="none" stroke="none"/><text fill="#000000" stroke="none" font-family="Arial" font-size="13px" font-style="normal" font-weight="normal" text-decoration="none" x="56" y="54">일반 사용자는 게시글을 볼 수만 있다.</text></g></g><g transform="translate(-41,2) scale(1,1)"><g><path fill="none" stroke="none"/></g></g><g transform="translate(-41,2) scale(1,1)"><g><path fill="none" stroke="none"/><text fill="#000000" stroke="none" font-family="Arial" font-size="13px" font-style="normal" font-weight="normal" text-decoration="none" x="56" y="71">그리고 게시글을 작성하는 회원은 이미지를 업로드하여 게시할 수 있으며 작성된 글에 대한 삭제는</text></g></g><g transform="translate(-41,2) scale(1,1)"><g><path fill="none" stroke="none"/><text fill="#000000" stroke="none" font-family="Arial" font-size="13px" font-style="normal" font-weight="normal" text-decoration="none" x="56" y="86">반드시 글을 작성한 회원의 비밀번호를 확인한 후에 삭제할 수 있다.</text></g></g><g transform="translate(-41,2) scale(1,1)"><g><path fill="none" stroke="none"/></g></g><g transform="translate(-41,2) scale(1,1)"><g><path fill="none" stroke="none"/><text fill="#000000" stroke="none" font-family="Arial" font-size="13px" font-style="normal" font-weight="normal" text-decoration="none" x="56" y="103">액터</text></g></g><g transform="translate(-41,2) scale(1,1)"><g><path fill="none" stroke="none"/><text fill="#000000" stroke="none" font-family="Arial" font-size="13px" font-style="normal" font-weight="normal" text-decoration="none" x="56" y="118">      - 일반 사용자, 회원</text></g></g><g transform="translate(-41,2) scale(1,1)"><g><path fill="none" stroke="none"/></g></g><g transform="translate(-41,2) scale(1,1)"><g><path fill="none" stroke="none"/><text fill="#000000" stroke="none" font-family="Arial" font-size="13px" font-style="normal" font-weight="normal" text-decoration="none" x="56" y="135">유스케이스</text></g></g><g transform="translate(-41,2) scale(1,1)"><g><path fill="none" stroke="none"/><text fill="#000000" stroke="none" font-family="Arial" font-size="13px" font-style="normal" font-weight="normal" text-decoration="none" x="56" y="150">      - 게시글 보기, 게시글 작성, 게시글 수정, 게시글 삭제, 이미지 업로드, 비밀번호 확인, 회원가입, 로그인 </text></g></g><g transform="translate(-41,2) scale(1,1)"><g><path fill="none" stroke="none"/></g></g><g transform="translate(-41,2) scale(1,1)"><path fill="#ffffff" stroke="none" d="M 108.32072727272728 289.68 C 108.32072727272728 284.886167936 112.20656959767274 281 117 281 C 121.79343040232726 281 125.67927272727272 284.886167936 125.67927272727272 289.68 C 125.67927272727272 294.473832064 121.79343040232726 298.36 117 298.36 C 112.20656959767274 298.36 108.32072727272728 294.473832064 108.32072727272728 289.68 Z"/></g><g transform="translate(-41,2) scale(1,1)"><path fill="none" stroke="#000000" d="M 108.32072727272728 289.68 C 108.32072727272728 284.886167936 112.20656959767274 281 117 281 C 121.79343040232726 281 125.67927272727272 284.886167936 125.67927272727272 289.68 C 125.67927272727272 294.473832064 121.79343040232726 298.36 117 298.36 C 112.20656959767274 298.36 108.32072727272728 294.473832064 108.32072727272728 289.68 Z" stroke-miterlimit="10"/></g><g transform="translate(-41,2) scale(1,1)"><path fill="none" stroke="#000000" d="M 117 298.36 L 117 315.64" stroke-miterlimit="10"/></g><g transform="translate(-41,2) scale(1,1)"><path fill="none" stroke="#000000" d="M 107.81018181818183 304.84 L 126.18981818181817 304.84" stroke-miterlimit="10"/></g><g transform="translate(-41,2) scale(1,1)"><path fill="none" stroke="#000000" d="M 117 315.64 L 104.23636363636365 333" stroke-miterlimit="10"/></g><g transform="translate(-41,2) scale(1,1)"><path fill="none" stroke="#000000" d="M 117 315.64 L 129.76363636363635 333" stroke-miterlimit="10"/></g><g transform="translate(-41,2) scale(1,1)"><g><path fill="none" stroke="none"/><text fill="#000000" stroke="none" font-family="Arial" font-size="13px" font-style="normal" font-weight="bold" text-decoration="none" x="84.5" y="352.5">일반사용자</text></g></g><g transform="translate(-41,2) scale(1,1)"><path fill="#ffffff" stroke="none" d="M 104.40935031960227 513.6800000000001 C 104.40935031960227 508.88616793600005 108.29519264454773 505 113.088623046875 505 C 117.88205344920227 505 121.76789577414773 508.88616793600005 121.76789577414773 513.6800000000001 C 121.76789577414773 518.473832064 117.88205344920227 522.36 113.088623046875 522.36 C 108.29519264454773 522.36 104.40935031960227 518.473832064 104.40935031960227 513.6800000000001 Z"/></g><g transform="translate(-41,2) scale(1,1)"><path fill="none" stroke="#000000" d="M 104.40935031960227 513.6800000000001 C 104.40935031960227 508.88616793600005 108.29519264454773 505 113.088623046875 505 C 117.88205344920227 505 121.76789577414773 508.88616793600005 121.76789577414773 513.6800000000001 C 121.76789577414773 518.473832064 117.88205344920227 522.36 113.088623046875 522.36 C 108.29519264454773 522.36 104.40935031960227 518.473832064 104.40935031960227 513.6800000000001 Z" stroke-miterlimit="10"/></g><g transform="translate(-41,2) scale(1,1)"><path fill="none" stroke="#000000" d="M 113.088623046875 522.36 L 113.088623046875 539.64" stroke-miterlimit="10"/></g><g transform="translate(-41,2) scale(1,1)"><path fill="none" stroke="#000000" d="M 103.89880486505682 528.84 L 122.27844122869318 528.84" stroke-miterlimit="10"/></g><g transform="translate(-41,2) scale(1,1)"><path fill="none" stroke="#000000" d="M 113.088623046875 539.64 L 100.32498668323863 557" stroke-miterlimit="10"/></g><g transform="translate(-41,2) scale(1,1)"><path fill="none" stroke="#000000" d="M 113.088623046875 539.64 L 125.85225941051137 557" stroke-miterlimit="10"/></g><g transform="translate(-41,2) scale(1,1)"><g><path fill="none" stroke="none"/><text fill="#000000" stroke="none" font-family="Arial" font-size="13px" font-style="normal" font-weight="bold" text-decoration="none" x="100.088623046875" y="576.5">회원</text></g></g><g transform="translate(-41,2) scale(1,1)"><path fill="#C0C0C0" stroke="none" d="M 311 304 C 311 294.6111584 335.62433599999997 287 366 287 C 396.37566400000003 287 421 294.6111584 421 304 C 421 313.3888416 396.37566400000003 321 366 321 C 335.62433599999997 321 311 313.3888416 311 304 Z" opacity="0.2"/></g><g transform="translate(-41,2) scale(1,1)"><path fill="#ffffff" stroke="none" d="M 304 297 C 304 287.6111584 328.62433599999997 280 359 280 C 389.37566400000003 280 414 287.6111584 414 297 C 414 306.3888416 389.37566400000003 314 359 314 C 328.62433599999997 314 304 306.3888416 304 297 Z"/></g><g transform="translate(-41,2) scale(1,1)"><path fill="none" stroke="#000000" d="M 304 297 C 304 287.6111584 328.62433599999997 280 359 280 C 389.37566400000003 280 414 287.6111584 414 297 C 414 306.3888416 389.37566400000003 314 359 314 C 328.62433599999997 314 304 306.3888416 304 297 Z" stroke-miterlimit="10"/></g><g transform="translate(-41,2) scale(1,1)"><g><path fill="none" stroke="none"/><text fill="#000000" stroke="none" font-family="Arial" font-size="13px" font-style="normal" font-weight="bold" text-decoration="none" x="324.694091796875" y="303">게시글 보기</text></g></g><g transform="translate(-41,2) scale(1,1)"><path fill="#C0C0C0" stroke="none" d="M 311 384 C 311 374.6111584 335.62433599999997 367 366 367 C 396.37566400000003 367 421 374.6111584 421 384 C 421 393.3888416 396.37566400000003 401 366 401 C 335.62433599999997 401 311 393.3888416 311 384 Z" opacity="0.2"/></g><g transform="translate(-41,2) scale(1,1)"><path fill="#ffffff" stroke="none" d="M 304 377 C 304 367.6111584 328.62433599999997 360 359 360 C 389.37566400000003 360 414 367.6111584 414 377 C 414 386.3888416 389.37566400000003 394 359 394 C 328.62433599999997 394 304 386.3888416 304 377 Z"/></g><g transform="translate(-41,2) scale(1,1)"><path fill="none" stroke="#000000" d="M 304 377 C 304 367.6111584 328.62433599999997 360 359 360 C 389.37566400000003 360 414 367.6111584 414 377 C 414 386.3888416 389.37566400000003 394 359 394 C 328.62433599999997 394 304 386.3888416 304 377 Z" stroke-miterlimit="10"/></g><g transform="translate(-41,2) scale(1,1)"><g><path fill="none" stroke="none"/><text fill="#000000" stroke="none" font-family="Arial" font-size="13px" font-style="normal" font-weight="bold" text-decoration="none" x="324.694091796875" y="383">게시글 작성</text></g></g><g transform="translate(-41,2) scale(1,1)"><path fill="#C0C0C0" stroke="none" d="M 311 456 C 311 446.6111584 335.62433599999997 439 366 439 C 396.37566400000003 439 421 446.6111584 421 456 C 421 465.3888416 396.37566400000003 473 366 473 C 335.62433599999997 473 311 465.3888416 311 456 Z" opacity="0.2"/></g><g transform="translate(-41,2) scale(1,1)"><path fill="#ffffff" stroke="none" d="M 304 449 C 304 439.6111584 328.62433599999997 432 359 432 C 389.37566400000003 432 414 439.6111584 414 449 C 414 458.3888416 389.37566400000003 466 359 466 C 328.62433599999997 466 304 458.3888416 304 449 Z"/></g><g transform="translate(-41,2) scale(1,1)"><path fill="none" stroke="#000000" d="M 304 449 C 304 439.6111584 328.62433599999997 432 359 432 C 389.37566400000003 432 414 439.6111584 414 449 C 414 458.3888416 389.37566400000003 466 359 466 C 328.62433599999997 466 304 458.3888416 304 449 Z" stroke-miterlimit="10"/></g><g transform="translate(-41,2) scale(1,1)"><g><path fill="none" stroke="none"/><text fill="#000000" stroke="none" font-family="Arial" font-size="13px" font-style="normal" font-weight="bold" text-decoration="none" x="324.694091796875" y="455">게시글 수정</text></g></g><g transform="translate(-41,2) scale(1,1)"><path fill="#C0C0C0" stroke="none" d="M 311 544 C 311 534.6111584 335.62433599999997 527 366 527 C 396.37566400000003 527 421 534.6111584 421 544 C 421 553.3888416 396.37566400000003 561 366 561 C 335.62433599999997 561 311 553.3888416 311 544 Z" opacity="0.2"/></g><g transform="translate(-41,2) scale(1,1)"><path fill="#ffffff" stroke="none" d="M 304 537 C 304 527.6111584 328.62433599999997 520 359 520 C 389.37566400000003 520 414 527.6111584 414 537 C 414 546.3888416 389.37566400000003 554 359 554 C 328.62433599999997 554 304 546.3888416 304 537 Z"/></g><g transform="translate(-41,2) scale(1,1)"><path fill="none" stroke="#000000" d="M 304 537 C 304 527.6111584 328.62433599999997 520 359 520 C 389.37566400000003 520 414 527.6111584 414 537 C 414 546.3888416 389.37566400000003 554 359 554 C 328.62433599999997 554 304 546.3888416 304 537 Z" stroke-miterlimit="10"/></g><g transform="translate(-41,2) scale(1,1)"><g><path fill="none" stroke="none"/><text fill="#000000" stroke="none" font-family="Arial" font-size="13px" font-style="normal" font-weight="bold" text-decoration="none" x="324.694091796875" y="543">게시글 삭제</text></g></g><g transform="translate(-41,2) scale(1,1)"><path fill="#C0C0C0" stroke="none" d="M 503 384 C 503 374.6111584 531.6537728 367 567 367 C 602.3462272 367 631 374.6111584 631 384 C 631 393.3888416 602.3462272 401 567 401 C 531.6537728 401 503 393.3888416 503 384 Z" opacity="0.2"/></g><g transform="translate(-41,2) scale(1,1)"><path fill="#ffffff" stroke="none" d="M 496 377 C 496 367.6111584 524.6537728 360 560 360 C 595.3462272 360 624 367.6111584 624 377 C 624 386.3888416 595.3462272 394 560 394 C 524.6537728 394 496 386.3888416 496 377 Z"/></g><g transform="translate(-41,2) scale(1,1)"><path fill="none" stroke="#000000" d="M 496 377 C 496 367.6111584 524.6537728 360 560 360 C 595.3462272 360 624 367.6111584 624 377 C 624 386.3888416 595.3462272 394 560 394 C 524.6537728 394 496 386.3888416 496 377 Z" stroke-miterlimit="10"/></g><g transform="translate(-41,2) scale(1,1)"><g><path fill="none" stroke="none"/><text fill="#000000" stroke="none" font-family="Arial" font-size="13px" font-style="normal" font-weight="bold" text-decoration="none" x="519.194091796875" y="383">이미지 업로드</text></g></g><g transform="translate(-41,2) scale(1,1)"><path fill="#C0C0C0" stroke="none" d="M 503 544 C 503 534.6111584 531.6537728 527 567 527 C 602.3462272 527 631 534.6111584 631 544 C 631 553.3888416 602.3462272 561 567 561 C 531.6537728 561 503 553.3888416 503 544 Z" opacity="0.2"/></g><g transform="translate(-41,2) scale(1,1)"><path fill="#ffffff" stroke="none" d="M 496 537 C 496 527.6111584 524.6537728 520 560 520 C 595.3462272 520 624 527.6111584 624 537 C 624 546.3888416 595.3462272 554 560 554 C 524.6537728 554 496 546.3888416 496 537 Z"/></g><g transform="translate(-41,2) scale(1,1)"><path fill="none" stroke="#000000" d="M 496 537 C 496 527.6111584 524.6537728 520 560 520 C 595.3462272 520 624 527.6111584 624 537 C 624 546.3888416 595.3462272 554 560 554 C 524.6537728 554 496 546.3888416 496 537 Z" stroke-miterlimit="10"/></g><g transform="translate(-41,2) scale(1,1)"><g><path fill="none" stroke="none"/><text fill="#000000" stroke="none" font-family="Arial" font-size="13px" font-style="normal" font-weight="bold" text-decoration="none" x="519.194091796875" y="543">비밀번호 확인</text></g></g><g transform="translate(-41,2) scale(1,1)"><path fill="#C0C0C0" stroke="none" d="M 279 232 C 279 222.6111584 301.6096176 215 329.5 215 C 357.3903824 215 380 222.6111584 380 232 C 380 241.3888416 357.3903824 249 329.5 249 C 301.6096176 249 279 241.3888416 279 232 Z" opacity="0.2"/></g><g transform="translate(-41,2) scale(1,1)"><path fill="#ffffff" stroke="none" d="M 272 225 C 272 215.6111584 294.6096176 208 322.5 208 C 350.3903824 208 373 215.6111584 373 225 C 373 234.3888416 350.3903824 242 322.5 242 C 294.6096176 242 272 234.3888416 272 225 Z"/></g><g transform="translate(-41,2) scale(1,1)"><path fill="none" stroke="#000000" d="M 272 225 C 272 215.6111584 294.6096176 208 322.5 208 C 350.3903824 208 373 215.6111584 373 225 C 373 234.3888416 350.3903824 242 322.5 242 C 294.6096176 242 272 234.3888416 272 225 Z" stroke-miterlimit="10"/></g><g transform="translate(-41,2) scale(1,1)"><g><path fill="none" stroke="none"/><text fill="#000000" stroke="none" font-family="Arial" font-size="13px" font-style="normal" font-weight="bold" text-decoration="none" x="296.5" y="231">회원가입</text></g></g><g transform="translate(-41,2) scale(1,1)"><path fill="#C0C0C0" stroke="none" d="M 263 616 C 263 606.6111584 285.6096176 599 313.5 599 C 341.3903824 599 364 606.6111584 364 616 C 364 625.3888416 341.3903824 633 313.5 633 C 285.6096176 633 263 625.3888416 263 616 Z" opacity="0.2"/></g><g transform="translate(-41,2) scale(1,1)"><path fill="#ffffff" stroke="none" d="M 256 609 C 256 599.6111584 278.6096176 592 306.5 592 C 334.3903824 592 357 599.6111584 357 609 C 357 618.3888416 334.3903824 626 306.5 626 C 278.6096176 626 256 618.3888416 256 609 Z"/></g><g transform="translate(-41,2) scale(1,1)"><path fill="none" stroke="#000000" d="M 256 609 C 256 599.6111584 278.6096176 592 306.5 592 C 334.3903824 592 357 599.6111584 357 609 C 357 618.3888416 334.3903824 626 306.5 626 C 278.6096176 626 256 618.3888416 256 609 Z" stroke-miterlimit="10"/></g><g transform="translate(-41,2) scale(1,1)"><g><path fill="none" stroke="none"/><text fill="#000000" stroke="none" font-family="Arial" font-size="13px" font-style="normal" font-weight="bold" text-decoration="none" x="287" y="615">로그인</text></g></g><g transform="translate(-41,2) scale(1,1)"><path fill="none" stroke="#000000" d="M 155 316 L 303 302" stroke-miterlimit="10"/></g><g transform="translate(-41,2) scale(1,1)"><path fill="none" stroke="#000000" d="M 293.2789186912322 307.1478712288018 L 303 302 L 292.4860628315436 298.76625214066536" stroke-miterlimit="10"/></g><g transform="translate(-41,2) scale(1,1)"><path fill="none" stroke="#000000" d="M 139 517 L 341 315" stroke-miterlimit="10"/></g><g transform="translate(-41,2) scale(1,1)"><path fill="none" stroke="#000000" d="M 336.790482243984 325.16267485762415 L 341 315 L 330.83732514237585 319.209517756016" stroke-miterlimit="10"/></g><g transform="translate(-41,2) scale(1,1)"><path fill="none" stroke="#000000" d="M 139 525 L 332 395" stroke-miterlimit="10"/></g><g transform="translate(-41,2) scale(1,1)"><path fill="none" stroke="#000000" d="M 325.9228073654314 404.16884560249247 L 332 395 L 321.21942297634473 397.1861287786945" stroke-miterlimit="10"/></g><g transform="translate(-41,2) scale(1,1)"><path fill="none" stroke="#000000" d="M 139 533 L 312 467" stroke-miterlimit="10"/></g><g transform="translate(-41,2) scale(1,1)"><path fill="none" stroke="#000000" d="M 304.0053042755279 474.55545103042215 L 312 467 L 301.00438578116825 466.6894070982371" stroke-miterlimit="10"/></g><g transform="translate(-41,2) scale(1,1)"><path fill="none" stroke="#000000" d="M 139 542 L 303 538" stroke-miterlimit="10"/></g><g transform="translate(-41,2) scale(1,1)"><path fill="none" stroke="#000000" d="M 292.94298724038555 542.456062651372 L 303 538 L 292.73770596101974 534.0395301973742" stroke-miterlimit="10"/></g><g transform="translate(-41,2) scale(1,1)"><path fill="none" stroke="#000000" d="M 415 377 L 495 377" stroke-miterlimit="10" stroke-dasharray="3"/></g><g transform="translate(-41,2) scale(1,1)"><path fill="none" stroke="#000000" d="M 484.83732514237585 381.209517756016 L 495 377 L 484.83732514237585 372.790482243984" stroke-miterlimit="10"/></g><g transform="translate(-41,2) scale(1,1)"><g><path fill="none" stroke="none"/><text fill="#000000" stroke="none" font-family="Arial" font-size="13px" font-style="normal" font-weight="normal" text-decoration="none" x="428.5" y="352">«extend»</text></g></g><g transform="translate(-41,2) scale(1,1)"><path fill="none" stroke="#000000" d="M 415 537 L 495 537" stroke-miterlimit="10" stroke-dasharray="3"/></g><g transform="translate(-41,2) scale(1,1)"><path fill="none" stroke="#000000" d="M 484.83732514237585 541.209517756016 L 495 537 L 484.83732514237585 532.790482243984" stroke-miterlimit="10"/></g><g transform="translate(-41,2) scale(1,1)"><g><path fill="none" stroke="none"/><text fill="#000000" stroke="none" font-family="Arial" font-size="13px" font-style="normal" font-weight="normal" text-decoration="none" x="427.5" y="512">«include»</text></g></g><g transform="translate(-41,2) scale(1,1)"><path fill="none" stroke="#000000" d="M 155 302 L 283 243" stroke-miterlimit="10"/></g><g transform="translate(-41,2) scale(1,1)"><path fill="none" stroke="#000000" d="M 275.53273337482597 251.0771238165923 L 283 243 L 272.0084561092157 243.43123415560726" stroke-miterlimit="10"/></g><g transform="translate(-41,2) scale(1,1)"><path fill="none" stroke="#000000" d="M 139 552 L 255 592" stroke-miterlimit="10"/></g><g transform="translate(-41,2) scale(1,1)"><path fill="none" stroke="#000000" d="M 244.0202181988207 592.6666270310237 L 255 592 L 246.76474533827832 584.7074983265966" stroke-miterlimit="10"/></g></g></svg>