<svg version="1.1" xmlns="http://www.w3.org/2000/svg" xmlns:xlink="http://www.w3.org/1999/xlink" width="836" height="614"><defs/><g><text fill="#eeeeee" stroke="none" font-family="Arial" font-size="24px" font-style="normal" font-weight="normal" text-decoration="none" x="0" y="0"></text><text fill="#eeeeee" stroke="none" font-family="Arial" font-size="24px" font-style="normal" font-weight="normal" text-decoration="none" x="0" y="30"></text><text fill="#eeeeee" stroke="none" font-family="Arial" font-size="24px" font-style="normal" font-weight="normal" text-decoration="none" x="0" y="60"></text><text fill="#eeeeee" stroke="none" font-family="Arial" font-size="24px" font-style="normal" font-weight="normal" text-decoration="none" x="0" y="90"></text><text fill="#eeeeee" stroke="none" font-family="Arial" font-size="24px" font-style="normal" font-weight="normal" text-decoration="none" x="0" y="120"></text><text fill="#eeeeee" stroke="none" font-family="Arial" font-size="24px" font-style="normal" font-weight="normal" text-decoration="none" x="0" y="150"></text><text fill="#eeeeee" stroke="none" font-family="Arial" font-size="24px" font-style="normal" font-weight="normal" text-decoration="none" x="0" y="180"></text><text fill="#eeeeee" stroke="none" font-family="Arial" font-size="24px" font-style="normal" font-weight="normal" text-decoration="none" x="0" y="210"></text><text fill="#eeeeee" stroke="none" font-family="Arial" font-size="24px" font-style="normal" font-weight="normal" text-decoration="none" x="0" y="240"></text><text fill="#eeeeee" stroke="none" font-family="Arial" font-size="24px" font-style="normal" font-weight="normal" text-decoration="none" x="0" y="270"></text><text fill="#eeeeee" stroke="none" font-family="Arial" font-size="24px" font-style="normal" font-weight="normal" text-decoration="none" x="0" y="300"></text><text fill="#eeeeee" stroke="none" font-family="Arial" font-size="24px" font-style="normal" font-weight="normal" text-decoration="none" x="0" y="330"></text><text fill="#eeeeee" stroke="none" font-family="Arial" font-size="24px" font-style="normal" font-weight="normal" text-decoration="none" x="0" y="360"></text><text fill="#eeeeee" stroke="none" font-family="Arial" font-size="24px" font-style="normal" font-weight="normal" text-decoration="none" x="0" y="390"></text><text fill="#eeeeee" stroke="none" font-family="Arial" font-size="24px" font-style="normal" font-weight="normal" text-decoration="none" x="0" y="420"></text><text fill="#eeeeee" stroke="none" font-family="Arial" font-size="24px" font-style="normal" font-weight="normal" text-decoration="none" x="0" y="450"></text><text fill="#eeeeee" stroke="none" font-family="Arial" font-size="24px" font-style="normal" font-weight="normal" text-decoration="none" x="0" y="480"></text><text fill="#eeeeee" stroke="none" font-family="Arial" font-size="24px" font-style="normal" font-weight="normal" text-decoration="none" x="0" y="510"></text><text fill="#eeeeee" stroke="none" font-family="Arial" font-size="24px" font-style="normal" font-weight="normal" text-decoration="none" x="0" y="540"></text><text fill="#eeeeee" stroke="none" font-family="Arial" font-size="24px" font-style="normal" font-weight="normal" text-decoration="none" x="0" y="570"></text><text fill="#eeeeee" stroke="none" font-family="Arial" font-size="24px" font-style="normal" font-weight="normal" text-decoration="none" x="0" y="600"></text><text fill="#eeeeee" stroke="none" font-family="Arial" font-size="24px" font-style="normal" font-weight="normal" text-decoration="none" x="200" y="0"></text><text fill="#eeeeee" stroke="none" font-family="Arial" font-size="24px" font-style="normal" font-weight="normal" text-decoration="none" x="200" y="30"></text><text fill="#eeeeee" stroke="none" font-family="Arial" font-size="24px" font-style="normal" font-weight="normal" text-decoration="none" x="200" y="60"></text><text fill="#eeeeee" stroke="none" font-family="Arial" font-size="24px" font-style="normal" font-weight="normal" text-decoration="none" x="200" y="90"></text><text fill="#eeeeee" stroke="none" font-family="Arial" font-size="24px" font-style="normal" font-weight="normal" text-decoration="none" x="200" y="120"></text><text fill="#eeeeee" stroke="none" font-family="Arial" font-size="24px" font-style="normal" font-weight="normal" text-decoration="none" x="200" y="150"></text><text fill="#eeeeee" stroke="none" font-family="Arial" font-size="24px" font-style="normal" font-weight="normal" text-decoration="none" x="200" y="180"></text><text fill="#eeeeee" stroke="none" font-family="Arial" font-size="24px" font-style="normal" font-weight="normal" text-decoration="none" x="200" y="210"></text><text fill="#eeeeee" stroke="none" font-family="Arial" font-size="24px" font-style="normal" font-weight="normal" text-decoration="none" x="200" y="240"></text><text fill="#eeeeee" stroke="none" font-family="Arial" font-size="24px" font-style="normal" font-weight="normal" text-decoration="none" x="200" y="270"></text><text fill="#eeeeee" stroke="none" font-family="Arial" font-size="24px" font-style="normal" font-weight="normal" text-decoration="none" x="200" y="300"></text><text fill="#eeeeee" stroke="none" font-family="Arial" font-size="24px" font-style="normal" font-weight="normal" text-decoration="none" x="200" y="330"></text><text fill="#eeeeee" stroke="none" font-family="Arial" font-size="24px" font-style="normal" font-weight="normal" text-decoration="none" x="200" y="360"></text><text fill="#eeeeee" stroke="none" font-family="Arial" font-size="24px" font-style="normal" font-weight="normal" text-decoration="none" x="200" y="390"></text><text fill="#eeeeee" stroke="none" font-family="Arial" font-size="24px" font-style="normal" font-weight="normal" text-decoration="none" x="200" y="420"></text><text fill="#eeeeee" stroke="none" font-family="Arial" font-size="24px" font-style="normal" font-weight="normal" text-decoration="none" x="200" y="450"></text><text fill="#eeeeee" stroke="none" font-family="Arial" font-size="24px" font-style="normal" font-weight="normal" text-decoration="none" x="200" y="480"></text><text fill="#eeeeee" stroke="none" font-family="Arial" font-size="24px" font-style="normal" font-weight="normal" text-decoration="none" x="200" y="510"></text><text fill="#eeeeee" stroke="none" font-family="Arial" font-size="24px" font-style="normal" font-weight="normal" text-decoration="none" x="200" y="540"></text><text fill="#eeeeee" stroke="none" font-family="Arial" font-size="24px" font-style="normal" font-weight="normal" text-decoration="none" x="200" y="570"></text><text fill="#eeeeee" stroke="none" font-family="Arial" font-size="24px" font-style="normal" font-weight="normal" text-decoration="none" x="200" y="600"></text><text fill="#eeeeee" stroke="none" font-family="Arial" font-size="24px" font-style="normal" font-weight="normal" text-decoration="none" x="400" y="0"></text><text fill="#eeeeee" stroke="none" font-family="Arial" font-size="24px" font-style="normal" font-weight="normal" text-decoration="none" x="400" y="30"></text><text fill="#eeeeee" stroke="none" font-family="Arial" font-size="24px" font-style="normal" font-weight="normal" text-decoration="none" x="400" y="60"></text><text fill="#eeeeee" stroke="none" font-family="Arial" font-size="24px" font-style="normal" font-weight="normal" text-decoration="none" x="400" y="90"></text><text fill="#eeeeee" stroke="none" font-family="Arial" font-size="24px" font-style="normal" font-weight="normal" text-decoration="none" x="400" y="120"></text><text fill="#eeeeee" stroke="none" font-family="Arial" font-size="24px" font-style="normal" font-weight="normal" text-decoration="none" x="400" y="150"></text><text fill="#eeeeee" stroke="none" font-family="Arial" font-size="24px" font-style="normal" font-weight="normal" text-decoration="none" x="400" y="180"></text><text fill="#eeeeee" stroke="none" font-family="Arial" font-size="24px" font-style="normal" font-weight="normal" text-decoration="none" x="400" y="210"></text><text fill="#eeeeee" stroke="none" font-family="Arial" font-size="24px" font-style="normal" font-weight="normal" text-decoration="none" x="400" y="240"></text><text fill="#eeeeee" stroke="none" font-family="Arial" font-size="24px" font-style="normal" font-weight="normal" text-decoration="none" x="400" y="270"></text><text fill="#eeeeee" stroke="none" font-family="Arial" font-size="24px" font-style="normal" font-weight="normal" text-decoration="none" x="400" y="300"></text><text fill="#eeeeee" stroke="none" font-family="Arial" font-size="24px" font-style="normal" font-weight="normal" text-decoration="none" x="400" y="330"></text><text fill="#eeeeee" stroke="none" font-family="Arial" font-size="24px" font-style="normal" font-weight="normal" text-decoration="none" x="400" y="360"></text><text fill="#eeeeee" stroke="none" font-family="Arial" font-size="24px" font-style="normal" font-weight="normal" text-decoration="none" x="400" y="390"></text><text fill="#eeeeee" stroke="none" font-family="Arial" font-size="24px" font-style="normal" font-weight="normal" text-decoration="none" x="400" y="420"></text><text fill="#eeeeee" stroke="none" font-family="Arial" font-size="24px" font-style="normal" font-weight="normal" text-decoration="none" x="400" y="450"></text><text fill="#eeeeee" stroke="none" font-family="Arial" font-size="24px" font-style="normal" font-weight="normal" text-decoration="none" x="400" y="480"></text><text fill="#eeeeee" stroke="none" font-family="Arial" font-size="24px" font-style="normal" font-weight="normal" text-decoration="none" x="400" y="510"></text><text fill="#eeeeee" stroke="none" font-family="Arial" font-size="24px" font-style="normal" font-weight="normal" text-decoration="none" x="400" y="540"></text><text fill="#eeeeee" stroke="none" font-family="Arial" font-size="24px" font-style="normal" font-weight="normal" text-decoration="none" x="400" y="570"></text><text fill="#eeeeee" stroke="none" font-family="Arial" font-size="24px" font-style="normal" font-weight="normal" text-decoration="none" x="400" y="600"></text><text fill="#eeeeee" stroke="none" font-family="Arial" font-size="24px" font-style="normal" font-weight="normal" text-decoration="none" x="600" y="0"></text><text fill="#eeeeee" stroke="none" font-family="Arial" font-size="24px" font-style="normal" font-weight="normal" text-decoration="none" x="600" y="30"></text><text fill="#eeeeee" stroke="none" font-family="Arial" font-size="24px" font-style="normal" font-weight="normal" text-decoration="none" x="600" y="60"></text><text fill="#eeeeee" stroke="none" font-family="Arial" font-size="24px" font-style="normal" font-weight="normal" text-decoration="none" x="600" y="90"></text><text fill="#eeeeee" stroke="none" font-family="Arial" font-size="24px" font-style="normal" font-weight="normal" text-decoration="none" x="600" y="120"></text><text fill="#eeeeee" stroke="none" font-family="Arial" font-size="24px" font-style="normal" font-weight="normal" text-decoration="none" x="600" y="150"></text><text fill="#eeeeee" stroke="none" font-family="Arial" font-size="24px" font-style="normal" font-weight="normal" text-decoration="none" x="600" y="180"></text><text fill="#eeeeee" stroke="none" font-family="Arial" font-size="24px" font-style="normal" font-weight="normal" text-decoration="none" x="600" y="210"></text><text fill="#eeeeee" stroke="none" font-family="Arial" font-size="24px" font-style="normal" font-weight="normal" text-decoration="none" x="600" y="240"></text><text fill="#eeeeee" stroke="none" font-family="Arial" font-size="24px" font-style="normal" font-weight="normal" text-decoration="none" x="600" y="270"></text><text fill="#eeeeee" stroke="none" font-family="Arial" font-size="24px" font-style="normal" font-weight="normal" text-decoration="none" x="600" y="300"></text><text fill="#eeeeee" stroke="none" font-family="Arial" font-size="24px" font-style="normal" font-weight="normal" text-decoration="none" x="600" y="330"></text><text fill="#eeeeee" stroke="none" font-family="Arial" font-size="24px" font-style="normal" font-weight="normal" text-decoration="none" x="600" y="360"></text><text fill="#eeeeee" stroke="none" font-family="Arial" font-size="24px" font-style="normal" font-weight="normal" text-decoration="none" x="600" y="390"></text><text fill="#eeeeee" stroke="none" font-family="Arial" font-size="24px" font-style="normal" font-weight="normal" text-decoration="none" x="600" y="420"></text><text fill="#eeeeee" stroke="none" font-family="Arial" font-size="24px" font-style="normal" font-weight="normal" text-decoration="none" x="600" y="450"></text><text fill="#eeeeee" stroke="none" font-family="Arial" font-size="24px" font-style="normal" font-weight="normal" text-decoration="none" x="600" y="480"></text><text fill="#eeeeee" stroke="none" font-family="Arial" font-size="24px" font-style="normal" font-weight="normal" text-decoration="none" x="600" y="510"></text><text fill="#eeeeee" stroke="none" font-family="Arial" font-size="24px" font-style="normal" font-weight="normal" text-decoration="none" x="600" y="540"></text><text fill="#eeeeee" stroke="none" font-family="Arial" font-size="24px" font-style="normal" font-weight="normal" text-decoration="none" x="600" y="570"></text><text fill="#eeeeee" stroke="none" font-family="Arial" font-size="24px" font-style="normal" font-weight="normal" text-decoration="none" x="600" y="600"></text><text fill="#eeeeee" stroke="none" font-family="Arial" font-size="24px" font-style="normal" font-weight="normal" text-decoration="none" x="800" y="0"></text><text fill="#eeeeee" stroke="none" font-family="Arial" font-size="24px" font-style="normal" font-weight="normal" text-decoration="none" x="800" y="30"></text><text fill="#eeeeee" stroke="none" font-family="Arial" font-size="24px" font-style="normal" font-weight="normal" text-decoration="none" x="800" y="60"></text><text fill="#eeeeee" stroke="none" font-family="Arial" font-size="24px" font-style="normal" font-weight="normal" text-decoration="none" x="800" y="90"></text><text fill="#eeeeee" stroke="none" font-family="Arial" font-size="24px" font-style="normal" font-weight="normal" text-decoration="none" x="800" y="120"></text><text fill="#eeeeee" stroke="none" font-family="Arial" font-size="24px" font-style="normal" font-weight="normal" text-decoration="none" x="800" y="150"></text><text fill="#eeeeee" stroke="none" font-family="Arial" font-size="24px" font-style="normal" font-weight="normal" text-decoration="none" x="800" y="180"></text><text fill="#eeeeee" stroke="none" font-family="Arial" font-size="24px" font-style="normal" font-weight="normal" text-decoration="none" x="800" y="210"></text><text fill="#eeeeee" stroke="none" font-family="Arial" font-size="24px" font-style="normal" font-weight="normal" text-decoration="none" x="800" y="240"></text><text fill="#eeeeee" stroke="none" font-family="Arial" font-size="24px" font-style="normal" font-weight="normal" text-decoration="none" x="800" y="270"></text><text fill="#eeeeee" stroke="none" font-family="Arial" font-size="24px" font-style="normal" font-weight="normal" text-decoration="none" x="800" y="300"></text><text fill="#eeeeee" stroke="none" font-family="Arial" font-size="24px" font-style="normal" font-weight="normal" text-decoration="none" x="800" y="330"></text><text fill="#eeeeee" stroke="none" font-family="Arial" font-size="24px" font-style="normal" font-weight="normal" text-decoration="none" x="800" y="360"></text><text fill="#eeeeee" stroke="none" font-family="Arial" font-size="24px" font-style="normal" font-weight="normal" text-decoration="none" x="800" y="390"></text><text fill="#eeeeee" stroke="none" font-family="Arial" font-size="24px" font-style="normal" font-weight="normal" text-decoration="none" x="800" y="420"></text><text fill="#eeeeee" stroke="none" font-family="Arial" font-size="24px" font-style="normal" font-weight="normal" text-decoration="none" x="800" y="450"></text><text fill="#eeeeee" stroke="none" font-family="Arial" font-size="24px" font-style="normal" font-weight="normal" text-decoration="none" x="800" y="480"></text><text fill="#eeeeee" stroke="none" font-family="Arial" font-size="24px" font-style="normal" font-weight="normal" text-decoration="none" x="800" y="510"></text><text fill="#eeeeee" stroke="none" font-family="Arial" font-size="24px" font-style="normal" font-weight="normal" text-decoration="none" x="800" y="540"></text><text fill="#eeeeee" stroke="none" font-family="Arial" font-size="24px" font-style="normal" font-weight="normal" text-decoration="none" x="800" y="570"></text><text fill="#eeeeee" stroke="none" font-family="Arial" font-size="24px" font-style="normal" font-weight="normal" text-decoration="none" x="800" y="600"></text><g transform="translate(2,2) scale(1,1)"><path fill="#ffffff" stroke="none" d="M 56.40935031960227 225.68 C 56.40935031960227 220.886167936 60.295192644547726 217 65.088623046875 217 C 69.88205344920227 217 73.76789577414773 220.886167936 73.76789577414773 225.68 C 73.76789577414773 230.47383206400002 69.88205344920227 234.36 65.088623046875 234.36 C 60.295192644547726 234.36 56.40935031960227 230.47383206400002 56.40935031960227 225.68 Z"/></g><g transform="translate(2,2) scale(1,1)"><path fill="none" stroke="#000000" d="M 56.40935031960227 225.68 C 56.40935031960227 220.886167936 60.295192644547726 217 65.088623046875 217 C 69.88205344920227 217 73.76789577414773 220.886167936 73.76789577414773 225.68 C 73.76789577414773 230.47383206400002 69.88205344920227 234.36 65.088623046875 234.36 C 60.295192644547726 234.36 56.40935031960227 230.47383206400002 56.40935031960227 225.68 Z" stroke-miterlimit="10"/></g><g transform="translate(2,2) scale(1,1)"><path fill="none" stroke="#000000" d="M 65.088623046875 234.36 L 65.088623046875 251.64" stroke-miterlimit="10"/></g><g transform="translate(2,2) scale(1,1)"><path fill="none" stroke="#000000" d="M 55.89880486505682 240.84 L 74.27844122869318 240.84" stroke-miterlimit="10"/></g><g transform="translate(2,2) scale(1,1)"><path fill="none" stroke="#000000" d="M 65.088623046875 251.64 L 52.324986683238635 269" stroke-miterlimit="10"/></g><g transform="translate(2,2) scale(1,1)"><path fill="none" stroke="#000000" d="M 65.088623046875 251.64 L 77.85225941051137 269" stroke-miterlimit="10"/></g><g transform="translate(2,2) scale(1,1)"><g><path fill="none" stroke="none"/><text fill="#000000" stroke="none" font-family="Arial" font-size="13px" font-style="normal" font-weight="bold" text-decoration="none" x="44.5" y="288">Actor1</text></g></g><g transform="translate(2,2) scale(1,1)"><path fill="#C0C0C0" stroke="none" d="M 239 264 C 239 254.6111584 261.6096176 247 289.5 247 C 317.3903824 247 340 254.6111584 340 264 C 340 273.3888416 317.3903824 281 289.5 281 C 261.6096176 281 239 273.3888416 239 264 Z" opacity="0.2"/></g><g transform="translate(2,2) scale(1,1)"><path fill="#ffffff" stroke="none" d="M 232 257 C 232 247.6111584 254.6096176 240 282.5 240 C 310.3903824 240 333 247.6111584 333 257 C 333 266.3888416 310.3903824 274 282.5 274 C 254.6096176 274 232 266.3888416 232 257 Z"/></g><g transform="translate(2,2) scale(1,1)"><path fill="none" stroke="#000000" d="M 232 257 C 232 247.6111584 254.6096176 240 282.5 240 C 310.3903824 240 333 247.6111584 333 257 C 333 266.3888416 310.3903824 274 282.5 274 C 254.6096176 274 232 266.3888416 232 257 Z" stroke-miterlimit="10"/></g><g transform="translate(2,2) scale(1,1)"><g><path fill="none" stroke="none"/><text fill="#000000" stroke="none" font-family="Arial" font-size="13px" font-style="normal" font-weight="bold" text-decoration="none" x="251.421875" y="262.5">UseCase1</text></g></g><g transform="translate(2,2) scale(1,1)"><path fill="#ffffff" stroke="none" d="M 64.40935031960227 385.68 C 64.40935031960227 380.886167936 68.29519264454773 377 73.088623046875 377 C 77.88205344920227 377 81.76789577414773 380.886167936 81.76789577414773 385.68 C 81.76789577414773 390.473832064 77.88205344920227 394.36 73.088623046875 394.36 C 68.29519264454773 394.36 64.40935031960227 390.473832064 64.40935031960227 385.68 Z"/></g><g transform="translate(2,2) scale(1,1)"><path fill="none" stroke="#000000" d="M 64.40935031960227 385.68 C 64.40935031960227 380.886167936 68.29519264454773 377 73.088623046875 377 C 77.88205344920227 377 81.76789577414773 380.886167936 81.76789577414773 385.68 C 81.76789577414773 390.473832064 77.88205344920227 394.36 73.088623046875 394.36 C 68.29519264454773 394.36 64.40935031960227 390.473832064 64.40935031960227 385.68 Z" stroke-miterlimit="10"/></g><g transform="translate(2,2) scale(1,1)"><path fill="none" stroke="#000000" d="M 73.088623046875 394.36 L 73.088623046875 411.64" stroke-miterlimit="10"/></g><g transform="translate(2,2) scale(1,1)"><path fill="none" stroke="#000000" d="M 63.89880486505682 400.84 L 82.27844122869318 400.84" stroke-miterlimit="10"/></g><g transform="translate(2,2) scale(1,1)"><path fill="none" stroke="#000000" d="M 73.088623046875 411.64 L 60.324986683238635 429" stroke-miterlimit="10"/></g><g transform="translate(2,2) scale(1,1)"><path fill="none" stroke="#000000" d="M 73.088623046875 411.64 L 85.85225941051137 429" stroke-miterlimit="10"/></g><g transform="translate(2,2) scale(1,1)"><g><path fill="none" stroke="none"/><text fill="#000000" stroke="none" font-family="Arial" font-size="13px" font-style="normal" font-weight="bold" text-decoration="none" x="52.5" y="448">Actor2</text></g></g><g transform="translate(2,2) scale(1,1)"><path fill="#C0C0C0" stroke="none" d="M 247 424 C 247 414.6111584 269.6096176 407 297.5 407 C 325.3903824 407 348 414.6111584 348 424 C 348 433.3888416 325.3903824 441 297.5 441 C 269.6096176 441 247 433.3888416 247 424 Z" opacity="0.2"/></g><g transform="translate(2,2) scale(1,1)"><path fill="#ffffff" stroke="none" d="M 240 417 C 240 407.6111584 262.6096176 400 290.5 400 C 318.3903824 400 341 407.6111584 341 417 C 341 426.3888416 318.3903824 434 290.5 434 C 262.6096176 434 240 426.3888416 240 417 Z"/></g><g transform="translate(2,2) scale(1,1)"><path fill="none" stroke="#000000" d="M 240 417 C 240 407.6111584 262.6096176 400 290.5 400 C 318.3903824 400 341 407.6111584 341 417 C 341 426.3888416 318.3903824 434 290.5 434 C 262.6096176 434 240 426.3888416 240 417 Z" stroke-miterlimit="10"/></g><g transform="translate(2,2) scale(1,1)"><g><path fill="none" stroke="none"/><text fill="#000000" stroke="none" font-family="Arial" font-size="13px" font-style="normal" font-weight="bold" text-decoration="none" x="259.421875" y="422.5">UseCase2</text></g></g><g transform="translate(2,2) scale(1,1)"><path fill="#C0C0C0" stroke="none" d="M 471 256 C 471 246.6111584 493.6096176 239 521.5 239 C 549.3903824 239 572 246.6111584 572 256 C 572 265.3888416 549.3903824 273 521.5 273 C 493.6096176 273 471 265.3888416 471 256 Z" opacity="0.2"/></g><g transform="translate(2,2) scale(1,1)"><path fill="#ffffff" stroke="none" d="M 464 249 C 464 239.6111584 486.6096176 232 514.5 232 C 542.3903824 232 565 239.6111584 565 249 C 565 258.3888416 542.3903824 266 514.5 266 C 486.6096176 266 464 258.3888416 464 249 Z"/></g><g transform="translate(2,2) scale(1,1)"><path fill="none" stroke="#000000" d="M 464 249 C 464 239.6111584 486.6096176 232 514.5 232 C 542.3903824 232 565 239.6111584 565 249 C 565 258.3888416 542.3903824 266 514.5 266 C 486.6096176 266 464 258.3888416 464 249 Z" stroke-miterlimit="10"/></g><g transform="translate(2,2) scale(1,1)"><g><path fill="none" stroke="none"/><text fill="#000000" stroke="none" font-family="Arial" font-size="13px" font-style="normal" font-weight="bold" text-decoration="none" x="483.421875" y="254.5">UseCase3</text></g></g><g transform="translate(2,2) scale(1,1)"><path fill="none" stroke="#000000" d="M 91 255 L 231 257" stroke-miterlimit="10"/></g><g transform="translate(2,2) scale(1,1)"><path fill="none" stroke="#000000" d="M 220.77823215875682 261.06392202185606 L 231 257 L 220.89849182387462 252.64574546361013" stroke-miterlimit="10"/></g><g transform="translate(2,2) scale(1,1)"><path fill="none" stroke="#000000" d="M 239 417 L 99 415" stroke-miterlimit="10"/></g><g transform="translate(2,2) scale(1,1)"><path fill="none" stroke="#000000" d="M 109.22176784124319 410.93607797814394 L 99 415 L 109.10150817612539 419.3542545363899" stroke-miterlimit="10"/></g><g transform="translate(2,2) scale(1,1)"><path fill="#C0C0C0" stroke="none" d="M 703 256 C 703 246.6111584 725.6096176 239 753.5 239 C 781.3903824 239 804 246.6111584 804 256 C 804 265.3888416 781.3903824 273 753.5 273 C 725.6096176 273 703 265.3888416 703 256 Z" opacity="0.2"/></g><g transform="translate(2,2) scale(1,1)"><path fill="#ffffff" stroke="none" d="M 696 249 C 696 239.6111584 718.6096176 232 746.5 232 C 774.3903824 232 797 239.6111584 797 249 C 797 258.3888416 774.3903824 266 746.5 266 C 718.6096176 266 696 258.3888416 696 249 Z"/></g><g transform="translate(2,2) scale(1,1)"><path fill="none" stroke="#000000" d="M 696 249 C 696 239.6111584 718.6096176 232 746.5 232 C 774.3903824 232 797 239.6111584 797 249 C 797 258.3888416 774.3903824 266 746.5 266 C 718.6096176 266 696 258.3888416 696 249 Z" stroke-miterlimit="10"/></g><g transform="translate(2,2) scale(1,1)"><g><path fill="none" stroke="none"/><text fill="#000000" stroke="none" font-family="Arial" font-size="13px" font-style="normal" font-weight="bold" text-decoration="none" x="715.421875" y="254.5">UseCase4</text></g></g><g transform="translate(2,2) scale(1,1)"><path fill="#C0C0C0" stroke="none" d="M 471 424 C 471 414.6111584 493.6096176 407 521.5 407 C 549.3903824 407 572 414.6111584 572 424 C 572 433.3888416 549.3903824 441 521.5 441 C 493.6096176 441 471 433.3888416 471 424 Z" opacity="0.2"/></g><g transform="translate(2,2) scale(1,1)"><path fill="#ffffff" stroke="none" d="M 464 417 C 464 407.6111584 486.6096176 400 514.5 400 C 542.3903824 400 565 407.6111584 565 417 C 565 426.3888416 542.3903824 434 514.5 434 C 486.6096176 434 464 426.3888416 464 417 Z"/></g><g transform="translate(2,2) scale(1,1)"><path fill="none" stroke="#000000" d="M 464 417 C 464 407.6111584 486.6096176 400 514.5 400 C 542.3903824 400 565 407.6111584 565 417 C 565 426.3888416 542.3903824 434 514.5 434 C 486.6096176 434 464 426.3888416 464 417 Z" stroke-miterlimit="10"/></g><g transform="translate(2,2) scale(1,1)"><g><path fill="none" stroke="none"/><text fill="#000000" stroke="none" font-family="Arial" font-size="13px" font-style="normal" font-weight="bold" text-decoration="none" x="483.421875" y="422.5">UseCase5</text></g></g><g transform="translate(2,2) scale(1,1)"><path fill="#C0C0C0" stroke="none" d="M 695 424 C 695 414.6111584 717.6096176 407 745.5 407 C 773.3903824 407 796 414.6111584 796 424 C 796 433.3888416 773.3903824 441 745.5 441 C 717.6096176 441 695 433.3888416 695 424 Z" opacity="0.2"/></g><g transform="translate(2,2) scale(1,1)"><path fill="#ffffff" stroke="none" d="M 688 417 C 688 407.6111584 710.6096176 400 738.5 400 C 766.3903824 400 789 407.6111584 789 417 C 789 426.3888416 766.3903824 434 738.5 434 C 710.6096176 434 688 426.3888416 688 417 Z"/></g><g transform="translate(2,2) scale(1,1)"><path fill="none" stroke="#000000" d="M 688 417 C 688 407.6111584 710.6096176 400 738.5 400 C 766.3903824 400 789 407.6111584 789 417 C 789 426.3888416 766.3903824 434 738.5 434 C 710.6096176 434 688 426.3888416 688 417 Z" stroke-miterlimit="10"/></g><g transform="translate(2,2) scale(1,1)"><g><path fill="none" stroke="none"/><text fill="#000000" stroke="none" font-family="Arial" font-size="13px" font-style="normal" font-weight="bold" text-decoration="none" x="707.421875" y="422.5">UseCase6</text></g></g><g transform="translate(2,2) scale(1,1)"><path fill="none" stroke="#000000" d="M 566 249 L 695 249" stroke-miterlimit="10" stroke-dasharray="3"/></g><g transform="translate(2,2) scale(1,1)"><path fill="none" stroke="#000000" d="M 684.8373251423759 253.209517756016 L 695 249 L 684.8373251423758 244.790482243984" stroke-miterlimit="10"/></g><g transform="translate(2,2) scale(1,1)"><g><path fill="none" stroke="none"/><text fill="#000000" stroke="none" font-family="Arial" font-size="13px" font-style="normal" font-weight="normal" text-decoration="none" x="602.5" y="224">«include»</text></g></g><g transform="translate(2,2) scale(1,1)"><path fill="none" stroke="#000000" d="M 566 417 L 687 417" stroke-miterlimit="10" stroke-dasharray="3"/></g><g transform="translate(2,2) scale(1,1)"><path fill="none" stroke="#000000" d="M 676.8373251423759 421.209517756016 L 687 417 L 676.8373251423758 412.790482243984" stroke-miterlimit="10"/></g><g transform="translate(2,2) scale(1,1)"><g><path fill="none" stroke="none"/><text fill="#000000" stroke="none" font-family="Arial" font-size="13px" font-style="normal" font-weight="normal" text-decoration="none" x="599.5" y="392">«extend»</text></g></g><g transform="translate(2,2) scale(1,1)"><path fill="#C0C0C0" stroke="none" d="M 463 520 C 463 510.6111584 485.6096176 503 513.5 503 C 541.3903824 503 564 510.6111584 564 520 C 564 529.3888416 541.3903824 537 513.5 537 C 485.6096176 537 463 529.3888416 463 520 Z" opacity="0.2"/></g><g transform="translate(2,2) scale(1,1)"><path fill="#ffffff" stroke="none" d="M 456 513 C 456 503.6111584 478.6096176 496 506.5 496 C 534.3903824 496 557 503.6111584 557 513 C 557 522.3888416 534.3903824 530 506.5 530 C 478.6096176 530 456 522.3888416 456 513 Z"/></g><g transform="translate(2,2) scale(1,1)"><path fill="none" stroke="#000000" d="M 456 513 C 456 503.6111584 478.6096176 496 506.5 496 C 534.3903824 496 557 503.6111584 557 513 C 557 522.3888416 534.3903824 530 506.5 530 C 478.6096176 530 456 522.3888416 456 513 Z" stroke-miterlimit="10"/></g><g transform="translate(2,2) scale(1,1)"><g><path fill="none" stroke="none"/><text fill="#000000" stroke="none" font-family="Arial" font-size="13px" font-style="normal" font-weight="bold" text-decoration="none" x="475.421875" y="518.5">UseCase7</text></g></g><g transform="translate(2,2) scale(1,1)"><path fill="#C0C0C0" stroke="none" d="M 463 592 C 463 582.6111584 485.6096176 575 513.5 575 C 541.3903824 575 564 582.6111584 564 592 C 564 601.3888416 541.3903824 609 513.5 609 C 485.6096176 609 463 601.3888416 463 592 Z" opacity="0.2"/></g><g transform="translate(2,2) scale(1,1)"><path fill="#ffffff" stroke="none" d="M 456 585 C 456 575.6111584 478.6096176 568 506.5 568 C 534.3903824 568 557 575.6111584 557 585 C 557 594.3888416 534.3903824 602 506.5 602 C 478.6096176 602 456 594.3888416 456 585 Z"/></g><g transform="translate(2,2) scale(1,1)"><path fill="none" stroke="#000000" d="M 456 585 C 456 575.6111584 478.6096176 568 506.5 568 C 534.3903824 568 557 575.6111584 557 585 C 557 594.3888416 534.3903824 602 506.5 602 C 478.6096176 602 456 594.3888416 456 585 Z" stroke-miterlimit="10"/></g><g transform="translate(2,2) scale(1,1)"><g><path fill="none" stroke="none"/><text fill="#000000" stroke="none" font-family="Arial" font-size="13px" font-style="normal" font-weight="bold" text-decoration="none" x="475.421875" y="590.5">UseCase8</text></g></g><g transform="translate(2,2) scale(1,1)"><path fill="#C0C0C0" stroke="none" d="M 687 552 C 687 542.6111584 709.6096176 535 737.5 535 C 765.3903824 535 788 542.6111584 788 552 C 788 561.3888416 765.3903824 569 737.5 569 C 709.6096176 569 687 561.3888416 687 552 Z" opacity="0.2"/></g><g transform="translate(2,2) scale(1,1)"><path fill="#ffffff" stroke="none" d="M 680 545 C 680 535.6111584 702.6096176 528 730.5 528 C 758.3903824 528 781 535.6111584 781 545 C 781 554.3888416 758.3903824 562 730.5 562 C 702.6096176 562 680 554.3888416 680 545 Z"/></g><g transform="translate(2,2) scale(1,1)"><path fill="none" stroke="#000000" d="M 680 545 C 680 535.6111584 702.6096176 528 730.5 528 C 758.3903824 528 781 535.6111584 781 545 C 781 554.3888416 758.3903824 562 730.5 562 C 702.6096176 562 680 554.3888416 680 545 Z" stroke-miterlimit="10"/></g><g transform="translate(2,2) scale(1,1)"><g><path fill="none" stroke="none"/><text fill="#000000" stroke="none" font-family="Arial" font-size="13px" font-style="normal" font-weight="bold" text-decoration="none" x="699.421875" y="550.5">UseCase9</text></g></g><g transform="translate(2,2) scale(1,1)"><path fill="none" stroke="#000000" d="M 558 520 L 679 538" stroke-miterlimit="10"/></g><g transform="translate(2,2) scale(1,1)"><path fill="#FFFFFF" stroke="none" d="M 657.6570948903052 543.336703240631 L 679 538 L 660.1346680160833 526.6819061173442"/></g><g transform="translate(2,2) scale(1,1)"><path fill="none" stroke="#000000" d="M 657.6570948903052 543.336703240631 L 679 538 L 660.1346680160833 526.6819061173442 L 657.6570948903052 543.336703240631" stroke-miterlimit="10"/></g><g transform="translate(2,2) scale(1,1)"><path fill="none" stroke="#000000" d="M 558 576 L 679 554" stroke-miterlimit="10"/></g><g transform="translate(2,2) scale(1,1)"><path fill="#FFFFFF" stroke="none" d="M 660.5085428597006 565.9191448027309 L 679 554 L 657.4964571461184 549.3526733780293"/></g><g transform="translate(2,2) scale(1,1)"><path fill="none" stroke="#000000" d="M 660.5085428597006 565.9191448027309 L 679 554 L 657.4964571461184 549.3526733780293 L 660.5085428597006 565.9191448027309" stroke-miterlimit="10"/></g><g transform="translate(2,2) scale(1,1)"><rect fill="#ffffff" stroke="none" x="8" y="8" width="368" height="72"/></g><g transform="translate(2,2) scale(1,1)"><path fill="none" stroke="#000000" d="M 8 8 L 376 8 L 376 80 L 8 80 L 8 8 Z Z" stroke-miterlimit="10"/></g><g transform="translate(2,2) scale(1,1)"><g><path fill="none" stroke="none"/><text fill="#000000" stroke="none" font-family="Arial" font-size="13px" font-style="normal" font-weight="normal" text-decoration="none" x="13" y="24">Actor(엑터) </text></g></g><g transform="translate(2,2) scale(1,1)"><g><path fill="none" stroke="none"/><text fill="#000000" stroke="none" font-family="Arial" font-size="13px" font-style="normal" font-weight="normal" text-decoration="none" x="13" y="39">시스템과 상호작용을 하는 시스템 외부 존재(사용자,</text><text fill="#000000" stroke="none" font-family="Arial" font-size="13px" font-style="normal" font-weight="normal" text-decoration="none" x="13" y="52">외부시스템)</text></g></g><g transform="translate(2,2) scale(1,1)"><rect fill="#ffffff" stroke="none" x="400" y="8" width="360" height="65"/></g><g transform="translate(2,2) scale(1,1)"><path fill="none" stroke="#000000" d="M 400 8 L 760 8 L 760 73 L 400 73 L 400 8 Z Z" stroke-miterlimit="10"/></g><g transform="translate(2,2) scale(1,1)"><g><path fill="none" stroke="none"/><text fill="#000000" stroke="none" font-family="Arial" font-size="13px" font-style="normal" font-weight="normal" text-decoration="none" x="405" y="24">UseCase(유스케이스) </text></g></g><g transform="translate(2,2) scale(1,1)"><g><path fill="none" stroke="none"/><text fill="#000000" stroke="none" font-family="Arial" font-size="13px" font-style="normal" font-weight="normal" text-decoration="none" x="405" y="39">시스템이 제공하는 개별 기능으로 사용자가 인지할 수 있는</text><text fill="#000000" stroke="none" font-family="Arial" font-size="13px" font-style="normal" font-weight="normal" text-decoration="none" x="405" y="52">기능 단위로 작성</text></g></g><g transform="translate(2,2) scale(1,1)"><path fill="#ffffff" stroke="none" d="M 144.40935031960228 81.68 C 144.40935031960228 76.886167936 148.29519264454774 73 153.088623046875 73 C 157.88205344920226 73 161.76789577414772 76.886167936 161.76789577414772 81.68 C 161.76789577414772 86.473832064 157.88205344920226 90.36 153.088623046875 90.36 C 148.29519264454774 90.36 144.40935031960228 86.473832064 144.40935031960228 81.68 Z"/></g><g transform="translate(2,2) scale(1,1)"><path fill="none" stroke="#000000" d="M 144.40935031960228 81.68 C 144.40935031960228 76.886167936 148.29519264454774 73 153.088623046875 73 C 157.88205344920226 73 161.76789577414772 76.886167936 161.76789577414772 81.68 C 161.76789577414772 86.473832064 157.88205344920226 90.36 153.088623046875 90.36 C 148.29519264454774 90.36 144.40935031960228 86.473832064 144.40935031960228 81.68 Z" stroke-miterlimit="10"/></g><g transform="translate(2,2) scale(1,1)"><path fill="none" stroke="#000000" d="M 153.088623046875 90.36 L 153.088623046875 107.64" stroke-miterlimit="10"/></g><g transform="translate(2,2) scale(1,1)"><path fill="none" stroke="#000000" d="M 143.89880486505683 96.84 L 162.27844122869317 96.84" stroke-miterlimit="10"/></g><g transform="translate(2,2) scale(1,1)"><path fill="none" stroke="#000000" d="M 153.088623046875 107.64 L 140.32498668323865 125" stroke-miterlimit="10"/></g><g transform="translate(2,2) scale(1,1)"><path fill="none" stroke="#000000" d="M 153.088623046875 107.64 L 165.85225941051135 125" stroke-miterlimit="10"/></g><g transform="translate(2,2) scale(1,1)"><g><path fill="none" stroke="none"/><text fill="#000000" stroke="none" font-family="Arial" font-size="13px" font-style="normal" font-weight="bold" text-decoration="none" x="140.088623046875" y="144.5">액터</text></g></g><g transform="translate(2,2) scale(1,1)"><path fill="#C0C0C0" stroke="none" d="M 519 88 C 519 78.6111584 543.8481936 71 574.5 71 C 605.1518064 71 630 78.6111584 630 88 C 630 97.3888416 605.1518064 105 574.5 105 C 543.8481936 105 519 97.3888416 519 88 Z" opacity="0.2"/></g><g transform="translate(2,2) scale(1,1)"><path fill="#ffffff" stroke="none" d="M 512 81 C 512 71.6111584 536.8481936 64 567.5 64 C 598.1518064 64 623 71.6111584 623 81 C 623 90.3888416 598.1518064 98 567.5 98 C 536.8481936 98 512 90.3888416 512 81 Z"/></g><g transform="translate(2,2) scale(1,1)"><path fill="none" stroke="#000000" d="M 512 81 C 512 71.6111584 536.8481936 64 567.5 64 C 598.1518064 64 623 71.6111584 623 81 C 623 90.3888416 598.1518064 98 567.5 98 C 536.8481936 98 512 90.3888416 512 81 Z" stroke-miterlimit="10"/></g><g transform="translate(2,2) scale(1,1)"><g><path fill="none" stroke="none"/><text fill="#000000" stroke="none" font-family="Arial" font-size="13px" font-style="normal" font-weight="bold" text-decoration="none" x="535" y="87">유스케이스</text></g></g><g transform="translate(2,2) scale(1,1)"><rect fill="#ffffff" stroke="none" x="8" y="152" width="368" height="54"/></g><g transform="translate(2,2) scale(1,1)"><path fill="none" stroke="#000000" d="M 8 152 L 376 152 L 376 206 L 8 206 L 8 152 Z Z" stroke-miterlimit="10"/></g><g transform="translate(2,2) scale(1,1)"><g><path fill="none" stroke="none"/><text fill="#000000" stroke="none" font-family="Arial" font-size="13px" font-style="normal" font-weight="normal" text-decoration="none" x="13" y="168">Association 연관관계(활성화)</text></g></g><g transform="translate(2,2) scale(1,1)"><g><path fill="none" stroke="none"/><text fill="#000000" stroke="none" font-family="Arial" font-size="13px" font-style="normal" font-weight="normal" text-decoration="none" x="13" y="183">- 액터와 유스케이스 간의 상호작용이 이루어지는 관계</text></g></g><g transform="translate(2,2) scale(1,1)"><g><path fill="none" stroke="none"/><text fill="#000000" stroke="none" font-family="Arial" font-size="13px" font-style="normal" font-weight="normal" text-decoration="none" x="13" y="198">- 액터가 해당 유스케이스를 활성화하여 사용하는 관계</text></g></g><g transform="translate(2,2) scale(1,1)"><rect fill="#ffffff" stroke="none" x="8" y="296" width="392" height="69"/></g><g transform="translate(2,2) scale(1,1)"><path fill="none" stroke="#000000" d="M 8 296 L 400 296 L 400 365 L 8 365 L 8 296 Z Z" stroke-miterlimit="10"/></g><g transform="translate(2,2) scale(1,1)"><g><path fill="none" stroke="none"/><text fill="#000000" stroke="none" font-family="Arial" font-size="13px" font-style="normal" font-weight="normal" text-decoration="none" x="13" y="312">Association 연관관계(통보/알림)</text></g></g><g transform="translate(2,2) scale(1,1)"><g><path fill="none" stroke="none"/><text fill="#000000" stroke="none" font-family="Arial" font-size="13px" font-style="normal" font-weight="normal" text-decoration="none" x="13" y="327">- 액터와 유스케이스 간의 상호작용이 이루어지는 관계</text></g></g><g transform="translate(2,2) scale(1,1)"><g><path fill="none" stroke="none"/><text fill="#000000" stroke="none" font-family="Arial" font-size="13px" font-style="normal" font-weight="normal" text-decoration="none" x="13" y="342">- 유스케이스의 특정 기능을 통해 액터에게 통보/알림을 주는 관계</text></g></g><g transform="translate(2,2) scale(1,1)"><g><path fill="none" stroke="none"/><text fill="#000000" stroke="none" font-family="Arial" font-size="13px" font-style="normal" font-weight="normal" text-decoration="none" x="13" y="357">- 외부시스템에 서비스 실행을 요청하는 관계</text></g></g><g transform="translate(2,2) scale(1,1)"><rect fill="#ffffff" stroke="none" x="400" y="136" width="424" height="69"/></g><g transform="translate(2,2) scale(1,1)"><path fill="none" stroke="#000000" d="M 400 136 L 824 136 L 824 205 L 400 205 L 400 136 Z Z" stroke-miterlimit="10"/></g><g transform="translate(2,2) scale(1,1)"><g><path fill="none" stroke="none"/><text fill="#000000" stroke="none" font-family="Arial" font-size="13px" font-style="normal" font-weight="normal" text-decoration="none" x="405" y="152">Include 의존관계(포함관계)</text></g></g><g transform="translate(2,2) scale(1,1)"><g><path fill="none" stroke="none"/><text fill="#000000" stroke="none" font-family="Arial" font-size="13px" font-style="normal" font-weight="normal" text-decoration="none" x="405" y="167">- 왼쪽(화살표의 반대편)의 유스케이스를 활성화 하기 위해서는 반드시 </text></g></g><g transform="translate(2,2) scale(1,1)"><g><path fill="none" stroke="none"/><text fill="#000000" stroke="none" font-family="Arial" font-size="13px" font-style="normal" font-weight="normal" text-decoration="none" x="405" y="182">   오른쪽(화살표에 있는)의 유스케이스를 먼저 활성화 해야하는 관계</text></g></g><g transform="translate(2,2) scale(1,1)"><g><path fill="none" stroke="none"/><text fill="#000000" stroke="none" font-family="Arial" font-size="13px" font-style="normal" font-weight="normal" text-decoration="none" x="405" y="197">- ex)개인정보수정 시 암호확인 하는 것 등이 include 관계임</text></g></g><g transform="translate(2,2) scale(1,1)"><rect fill="#ffffff" stroke="none" x="424" y="288" width="400" height="84"/></g><g transform="translate(2,2) scale(1,1)"><path fill="none" stroke="#000000" d="M 424 288 L 824 288 L 824 372 L 424 372 L 424 288 Z Z" stroke-miterlimit="10"/></g><g transform="translate(2,2) scale(1,1)"><g><path fill="none" stroke="none"/><text fill="#000000" stroke="none" font-family="Arial" font-size="13px" font-style="normal" font-weight="normal" text-decoration="none" x="429" y="304">Extend 의존관계(확장관계) - 스테레오타입</text></g></g><g transform="translate(2,2) scale(1,1)"><g><path fill="none" stroke="none"/><text fill="#000000" stroke="none" font-family="Arial" font-size="13px" font-style="normal" font-weight="normal" text-decoration="none" x="429" y="319">- 왼쪽(화살표의 반대편)의 유스케이스에서 액터의 선택에 따라</text></g></g><g transform="translate(2,2) scale(1,1)"><g><path fill="none" stroke="none"/><text fill="#000000" stroke="none" font-family="Arial" font-size="13px" font-style="normal" font-weight="normal" text-decoration="none" x="429" y="334">  오른쪽(화살표에 있는)의 유스케이스를 활성화하거나 활성화하지</text></g></g><g transform="translate(2,2) scale(1,1)"><g><path fill="none" stroke="none"/><text fill="#000000" stroke="none" font-family="Arial" font-size="13px" font-style="normal" font-weight="normal" text-decoration="none" x="429" y="349">  않을 수 있는 관계</text></g></g><g transform="translate(2,2) scale(1,1)"><g><path fill="none" stroke="none"/><text fill="#000000" stroke="none" font-family="Arial" font-size="13px" font-style="normal" font-weight="normal" text-decoration="none" x="429" y="364">- ex)게시글 작성 시 파일업로드 선택하는 것 등이 extend 관계임</text></g></g><g transform="translate(2,2) scale(1,1)"><rect fill="#ffffff" stroke="none" x="8" y="504" width="440" height="97"/></g><g transform="translate(2,2) scale(1,1)"><path fill="none" stroke="#000000" d="M 8 504 L 448 504 L 448 601 L 8 601 L 8 504 Z Z" stroke-miterlimit="10"/></g><g transform="translate(2,2) scale(1,1)"><g><path fill="none" stroke="none"/><text fill="#000000" stroke="none" font-family="Arial" font-size="13px" font-style="normal" font-weight="normal" text-decoration="none" x="13" y="520">Generalization 일반화 관계</text></g></g><g transform="translate(2,2) scale(1,1)"><g><path fill="none" stroke="none"/><text fill="#000000" stroke="none" font-family="Arial" font-size="13px" font-style="normal" font-weight="normal" text-decoration="none" x="13" y="535">- 왼쪽(화살표 반대편)의 유스케이스들을 오른쪽(화살표 있는)의</text></g></g><g transform="translate(2,2) scale(1,1)"><g><path fill="none" stroke="none"/><text fill="#000000" stroke="none" font-family="Arial" font-size="13px" font-style="normal" font-weight="normal" text-decoration="none" x="13" y="550">  유스케이스로 기능을 일반화하여 활성화 할 수 있는 관계</text></g></g><g transform="translate(2,2) scale(1,1)"><g><path fill="none" stroke="none"/><text fill="#000000" stroke="none" font-family="Arial" font-size="13px" font-style="normal" font-weight="normal" text-decoration="none" x="13" y="564">- ex)</text></g></g><g transform="translate(2,2) scale(1,1)"><g><path fill="none" stroke="none"/><text fill="#000000" stroke="none" font-family="Arial" font-size="13px" font-style="normal" font-weight="normal" text-decoration="none" x="13" y="580">UseCase7: 내부사용자별, UseCase8: 외부사용자별 UseCase9: 통계정보</text><text fill="#000000" stroke="none" font-family="Arial" font-size="13px" font-style="normal" font-weight="normal" text-decoration="none" x="13" y="593">이런식으로 사용함.</text></g></g></g></svg>